ffmpeg started on 2016-11-26 at 22:38:55
Report written to "Output/NVENCh264/results/ffmpeg/old_town_cross_2160p50ll14000k.log"
Command line:
Tools/ffmpeg/ffmpeg -benchmark -y -i Input/y4m/old_town_cross_2160p50.y4m -c:v h264_nvenc -preset ll -b:v 14000k -an Output/NVENCh264/encoded/old_town_cross_2160p50ll14000k.mkv
ffmpeg version N-82227-gdb23fde Copyright (c) 2000-2016 the FFmpeg developers
  built with gcc 5.4.0 (Ubuntu 5.4.0-6ubuntu1~16.04.2) 20160609
  configuration: --prefix=/home/jaroslav/ffmpeg_build --pkg-config-flags=--static --extra-cflags=-I/home/jaroslav/ffmpeg_build/include --extra-ldflags=-L/home/jaroslav/ffmpeg_build/lib --bindir=/home/jaroslav/bin --enable-gpl --enable-libass --enable-libfdk-aac --enable-libfreetype --enable-libmp3lame --enable-libopus --enable-libtheora --enable-libvorbis --enable-libvpx --enable-libx264 --enable-libx265 --enable-nvenc --enable-libmfx --enable-libxvid --enable-libgsm --enable-libopencore-amrnb --enable-version3 --enable-nonfree
  libavutil      55. 35.100 / 55. 35.100
  libavcodec     57. 66.101 / 57. 66.101
  libavformat    57. 57.100 / 57. 57.100
  libavdevice    57.  2.100 / 57.  2.100
  libavfilter     6. 66.100 /  6. 66.100
  libswscale      4.  3.100 /  4.  3.100
  libswresample   2.  4.100 /  2.  4.100
  libpostproc    54.  2.100 / 54.  2.100
Input #0, yuv4mpegpipe, from 'Input/y4m/old_town_cross_2160p50.y4m':
  Duration: 00:00:10.00, start: 0.000000, bitrate: 4976642 kb/s
    Stream #0:0: Video: rawvideo (I420 / 0x30323449), yuv420p(progressive), 3840x2160, SAR 1:1 DAR 16:9, 50 fps, 50 tbr, 50 tbn, 50 tbc
[h264_nvenc @ 0x2aed120] The variable bitrate rate-control requires the 'qmin' and/or 'qmax' option set.
Output #0, matroska, to 'Output/NVENCh264/encoded/old_town_cross_2160p50ll14000k.mkv':
  Metadata:
    encoder         : Lavf57.57.100
    Stream #0:0: Video: h264 (h264_nvenc) (Main) (H264 / 0x34363248), yuv420p, 3840x2160 [SAR 1:1 DAR 16:9], q=-1--1, 14000 kb/s, 50 fps, 1k tbn, 50 tbc
    Metadata:
      encoder         : Lavc57.66.101 h264_nvenc
    Side data:
      cpb: bitrate max/min/avg: 0/0/14000000 buffer size: 28000000 vbv_delay: -1
Stream mapping:
  Stream #0:0 -> #0:0 (rawvideo (native) -> h264 (h264_nvenc))
Press [q] to stop, [?] for help
frame=   19 fps=0.0 q=0.0 size=       0kB time=00:00:00.00 bitrate=N/A speed=   0x    frame=   37 fps= 36 q=35.0 size=       1kB time=00:00:00.12 bitrate=  49.5kbits/s speed=0.119x    frame=   55 fps= 36 q=32.0 size=       1kB time=00:00:00.48 bitrate=  12.4kbits/s speed=0.314x    frame=   73 fps= 36 q=32.0 size=       1kB time=00:00:00.84 bitrate=   7.1kbits/s speed=0.412x    frame=   91 fps= 36 q=33.0 size=       1kB time=00:00:01.20 bitrate=   5.0kbits/s speed=0.47x    frame=  109 fps= 35 q=32.0 size=       1kB time=00:00:01.56 bitrate=   3.8kbits/s speed=0.508x    frame=  127 fps= 35 q=32.0 size=       1kB time=00:00:01.92 bitrate=   3.1kbits/s speed=0.534x    frame=  145 fps= 35 q=31.0 size=       1kB time=00:00:02.28 bitrate=   2.6kbits/s speed=0.555x    frame=  163 fps= 35 q=32.0 size=       1kB time=00:00:02.64 bitrate=   2.3kbits/s speed=0.571x    frame=  181 fps= 35 q=32.0 size=       1kB time=00:00:03.00 bitrate=   2.0kbits/s speed=0.584x    frame=  198 fps= 35 q=32.0 size=    5145kB time=00:00:03.34 bitrate=12615.4kbits/s speed=0.593x    frame=  215 fps= 35 q=32.0 size=    5145kB time=00:00:03.68 bitrate=11450.2kbits/s speed=0.599x    frame=  233 fps= 35 q=30.0 size=    5145kB time=00:00:04.04 bitrate=10430.1kbits/s speed=0.607x    frame=  251 fps= 35 q=32.0 size=    5145kB time=00:00:04.40 bitrate=9577.0kbits/s speed=0.613x    frame=  264 fps= 34 q=31.0 size=    5145kB time=00:00:04.66 bitrate=9042.7kbits/s speed=0.596x    frame=  282 fps= 34 q=33.0 size=    8414kB time=00:00:05.02 bitrate=13727.3kbits/s speed=0.602x    frame=  300 fps= 34 q=32.0 size=    8414kB time=00:00:05.38 bitrate=12808.9kbits/s speed=0.608x    frame=  318 fps= 34 q=33.0 size=    8414kB time=00:00:05.74 bitrate=12005.7kbits/s speed=0.613x    frame=  336 fps= 34 q=31.0 size=    8414kB time=00:00:06.10 bitrate=11297.3kbits/s speed=0.618x    frame=  354 fps= 34 q=33.0 size=    8414kB time=00:00:06.46 bitrate=10667.8kbits/s speed=0.622x    frame=  372 fps= 34 q=32.0 size=    8414kB time=00:00:06.82 bitrate=10104.8kbits/s speed=0.625x    frame=  390 fps= 34 q=33.0 size=    8414kB time=00:00:07.18 bitrate=9598.2kbits/s speed=0.629x    frame=  408 fps= 34 q=32.0 size=    8414kB time=00:00:07.54 bitrate=9140.0kbits/s speed=0.632x    frame=  426 fps= 34 q=32.0 size=    8414kB time=00:00:07.90 bitrate=8723.5kbits/s speed=0.635x    frame=  432 fps= 33 q=32.0 size=   13541kB time=00:00:08.02 bitrate=13829.5kbits/s speed=0.619x    frame=  450 fps= 33 q=32.0 size=   13541kB time=00:00:08.38 bitrate=13235.5kbits/s speed=0.622x    frame=  464 fps= 32 q=32.0 size=   13541kB time=00:00:08.66 bitrate=12807.6kbits/s speed=0.602x    frame=  471 fps= 32 q=32.0 size=   13541kB time=00:00:08.80 bitrate=12603.9kbits/s speed=0.59x    frame=  475 fps= 30 q=32.0 size=   13541kB time=00:00:08.88 bitrate=12490.3kbits/s speed=0.568x    frame=  493 fps= 31 q=34.0 size=   13541kB time=00:00:09.24 bitrate=12003.8kbits/s speed=0.572x    frame=  500 fps= 30 q=32.0 Lsize=   16849kB time=00:00:09.98 bitrate=13828.6kbits/s speed=0.609x    
video:16844kB audio:0kB subtitle:0kB other streams:0kB global headers:0kB muxing overhead: 0.028108%
bench: utime=1.044s
bench: maxrss=1408660kB
